# xmcd
#
# Track frame offsets: 
#        150
#        11449
#        23948
#        34802
#        48611
#        61594
#        72697
#        84412
#        98144
#        107026
#        119503
#        131339
#        144085
#        156774
#        171405
#        182559
#        195529
#        207593
#        222739
#        233613
#
# Disc length: 3272 seconds
#
# Revision: 3
# Processed by: cddbd v1.5.2PL0 Copyright (c) Steve Scherf et al.
# Submitted via: ExactAudioCopy v0.99pb4
#
DISCID=1c0cc614
DTITLE=Various Artist - American Roadsongs From Coast To Coast [CD 1]
DTITLE=Travelling From Coast To Coast
DYEAR=1900
DGENRE=Country
TTITLE0=Harry Adams - Arkansas Traveller
TTITLE1=Martha Davis - Cincinnati
TTITLE2=Roy Hawkins - Highway 59
TTITLE3=Cliff Bruner - That's What I Like About The South
TTITLE4=Porky Freeman - Rollin' South
TTITLE5=Gene Autry - It's Roundup Time
TTITLE6=Hank Penny - Tobacco State Stomp
TTITLE7=Fred Kirby - My Carolina Home
TTITLE8=Lewis Texas Jim - Missouri
TTITLE9=Light Crust Doughboys - Gulf Coast Blues
TTITLE10=Mabel Scott - Right Around The Corner From Basin Street
TTITLE11=Milton Brown - Down By The Ohio
TTITLE12=Prairie Ramblers - I've Got A Gal In Every State
TTITLE13=Glenn Miller - Pennsylvania Six-Five-Thousand
TTITLE14=Roy Rogers - I'm Gonna Gallop New Mexico
TTITLE15=Ruby Blevins (Aka Patsy Montana) - Montana Plains
TTITLE16=Redd Steward - When I'm In Indiana Home
TTITLE17=Tennessee Ernie Ford - Philadelphia Lawyer
TTITLE18=Young John Watson - Highway 60
TTITLE19=Zeb Turner - Travelin' Boogie
EXTD=
EXTT0=
EXTT1=
EXTT2=
EXTT3=
EXTT4=
EXTT5=
EXTT6=
EXTT7=
EXTT8=
EXTT9=
EXTT10=
EXTT11=
EXTT12=
EXTT13=
EXTT14=
EXTT15=
EXTT16=
EXTT17=
EXTT18=
EXTT19=
PLAYORDER=
